<svg width="24" height="24" viewBox="0 0 24 24" fill="none" xmlns="http://www.w3.org/2000/svg">
<path d="M13.1 22C11.7 22 10.3875 21.7333 9.1625 21.2C7.9375 20.6667 6.87083 19.9458 5.9625 19.0375C5.05417 18.1292 4.33333 17.0625 3.8 15.8375C3.26667 14.6125 3 13.3 3 11.9C3 9.46667 3.775 7.32083 5.325 5.4625C6.875 3.60417 8.85 2.45 11.25 2C10.95 3.65 11.0417 5.2625 11.525 6.8375C12.0083 8.4125 12.8417 9.79167 14.025 10.975C15.2083 12.1583 16.5875 12.9917 18.1625 13.475C19.7375 13.9583 21.35 14.05 23 13.75C22.5667 16.15 21.4167 18.125 19.55 19.675C17.6833 21.225 15.5333 22 13.1 22Z" fill="#0F192B"/>
</svg>
