<svg width="24" height="24" viewBox="0 0 24 24" fill="none" xmlns="http://www.w3.org/2000/svg">
<path d="M13.1 23C11.7 23 10.3875 22.7333 9.1625 22.2C7.9375 21.6667 6.87083 20.9458 5.9625 20.0375C5.05417 19.1292 4.33333 18.0625 3.8 16.8375C3.26667 15.6125 3 14.3 3 12.9C3 10.4667 3.775 8.32083 5.325 6.4625C6.875 4.60417 8.85 3.45 11.25 3C10.95 4.65 11.0417 6.2625 11.525 7.8375C12.0083 9.4125 12.8417 10.7917 14.025 11.975C15.2083 13.1583 16.5875 13.9917 18.1625 14.475C19.7375 14.9583 21.35 15.05 23 14.75C22.5667 17.15 21.4167 19.125 19.55 20.675C17.6833 22.225 15.5333 23 13.1 23Z" fill="#388774"/>
</svg>
