<svg width="33" height="32" viewBox="0 0 33 32" fill="none" xmlns="http://www.w3.org/2000/svg">
<path d="M23.1329 26.2981V18.3085C23.1329 16.6668 22.6528 15.0276 20.7028 15.0276C18.7503 15.0276 17.9313 16.6668 17.9313 18.348V26.2981H12.7221V11.6664H17.9313V13.6355C19.3018 11.916 20.4939 11.2041 22.6528 11.2041C24.8141 11.2041 28.3294 12.2039 28.3294 17.9825V26.2981H23.1329ZM7.90639 9.49483C6.29904 9.49483 4.99609 8.34217 4.99609 6.91568C4.99609 5.48919 6.29904 4.33398 7.90639 4.33398C9.51374 4.33398 10.8154 5.48919 10.8154 6.91568C10.8154 8.34217 9.51374 9.49483 7.90639 9.49483ZM10.5085 26.2981H5.28776V11.6664H10.5085V26.2981Z" fill="url(#paint0_linear_410_10520)"/>
<defs>
<linearGradient id="paint0_linear_410_10520" x1="28.3294" y1="26.2981" x2="6.40537" y2="3.0074" gradientUnits="userSpaceOnUse">
<stop stop-color="#A781F7"/>
<stop offset="1" stop-color="#55CBAE"/>
</linearGradient>
</defs>
</svg>
