<svg width="33" height="32" viewBox="0 0 33 32" fill="none" xmlns="http://www.w3.org/2000/svg">
<path d="M16.332 21C17.1445 21 18.0078 20.7396 18.7188 20.1667L29.332 11.7292V23.5C29.332 24.9063 28.2148 26 26.8945 26H5.76953C4.39844 26 3.33203 24.9063 3.33203 23.5V11.7292L13.8945 20.1667C14.6055 20.7396 15.4688 21 16.332 21ZM4.14453 10.2708C3.63672 9.85417 3.33203 9.17708 3.33203 8.5C3.33203 7.14583 4.39844 6 5.76953 6H26.8945C28.2148 6 29.332 7.14583 29.332 8.5C29.332 9.17708 28.9766 9.85417 28.4688 10.2708L17.7031 18.8646C16.8906 19.4896 15.7227 19.4896 14.9102 18.8646L4.14453 10.2708Z" fill="url(#paint0_linear_410_10512)"/>
<defs>
<linearGradient id="paint0_linear_410_10512" x1="29.332" y1="26" x2="10.0012" y2="0.869888" gradientUnits="userSpaceOnUse">
<stop stop-color="#A781F7"/>
<stop offset="1" stop-color="#55CBAE"/>
</linearGradient>
</defs>
</svg>
