<svg width="32" height="32" viewBox="0 0 32 32" fill="none" xmlns="http://www.w3.org/2000/svg">
<path d="M26.9729 21.5926L25.9409 25.9271C25.8119 26.5708 25.2959 27 24.6509 27C13.815 26.9571 5 18.1593 5 7.34449C5 6.70075 5.387 6.18576 6.032 6.05701L10.375 5.02703C10.977 4.89828 11.622 5.24161 11.88 5.79951L13.901 10.4774C14.116 11.0353 13.987 11.679 13.514 12.0223L11.192 13.9106C12.654 16.8718 15.062 19.2751 18.072 20.7343L19.9639 18.4168C20.3079 17.9876 20.9529 17.816 21.5119 18.0306L26.1989 20.0476C26.7579 20.348 27.1019 20.9918 26.9729 21.5926Z" fill="url(#paint0_linear_410_10516)"/>
<defs>
<linearGradient id="paint0_linear_410_10516" x1="27.0159" y1="26.9569" x2="5.04299" y2="4.941" gradientUnits="userSpaceOnUse">
<stop stop-color="#A781F7"/>
<stop offset="1" stop-color="#55CBAE"/>
</linearGradient>
</defs>
</svg>
