<svg width="208" height="200" viewBox="0 0 208 200" fill="none" xmlns="http://www.w3.org/2000/svg">
<path d="M203.508 55.7296C218.293 94.6687 192.733 133.435 161.051 160.474C127.438 189.162 83.139 213.395 45.0744 190.947C4.17863 166.829 -8.12528 114.092 5.06723 68.4841C17.0561 27.0371 57.1694 3.04633 100.227 0.278878C143.338 -2.49205 188.173 15.3424 203.508 55.7296Z" fill="#2A2338"/>
<circle cx="59.6276" cy="122.522" r="16.5651" fill="#7B5AC4"/>
<circle cx="103.522" cy="54.6061" r="16.5651" fill="#7B5AC4"/>
<circle cx="146.592" cy="122.524" r="16.5651" fill="#7B5AC4"/>
<path fill-rule="evenodd" clip-rule="evenodd" d="M59.6289 145.371C72.2473 145.371 82.4766 135.142 82.4766 122.523C82.4766 109.905 72.2473 99.6758 59.6289 99.6758C47.0105 99.6758 36.7813 109.905 36.7813 122.523C36.7813 135.142 47.0105 145.371 59.6289 145.371ZM59.6289 147.371C73.3519 147.371 84.4766 136.246 84.4766 122.523C84.4766 108.8 73.3519 97.6758 59.6289 97.6758C45.9059 97.6758 34.7813 108.8 34.7813 122.523C34.7813 136.246 45.9059 147.371 59.6289 147.371Z" fill="#A781F7"/>
<path fill-rule="evenodd" clip-rule="evenodd" d="M103.523 77.4531C116.142 77.4531 126.371 67.2239 126.371 54.6055C126.371 41.9871 116.142 31.7578 103.523 31.7578C90.905 31.7578 80.6758 41.9871 80.6758 54.6055C80.6758 67.2239 90.905 77.4531 103.523 77.4531ZM103.523 79.4531C117.246 79.4531 128.371 68.3285 128.371 54.6055C128.371 40.8825 117.246 29.7578 103.523 29.7578C89.8005 29.7578 78.6758 40.8825 78.6758 54.6055C78.6758 68.3285 89.8005 79.4531 103.523 79.4531Z" fill="#A781F7"/>
<path fill-rule="evenodd" clip-rule="evenodd" d="M146.59 145.371C159.208 145.371 169.438 135.142 169.438 122.523C169.438 109.905 159.208 99.6758 146.59 99.6758C133.971 99.6758 123.742 109.905 123.742 122.523C123.742 135.142 133.971 145.371 146.59 145.371ZM146.59 147.371C160.313 147.371 171.438 136.246 171.438 122.523C171.438 108.8 160.313 97.6758 146.59 97.6758C132.867 97.6758 121.742 108.8 121.742 122.523C121.742 136.246 132.867 147.371 146.59 147.371Z" fill="#A781F7"/>
<rect x="78.6758" y="120.035" width="48.8671" height="4.96953" rx="2.48477" fill="#55CBAE"/>
<rect x="68.5195" y="105.211" width="42.6013" height="4.96953" rx="2.48477" transform="rotate(-56.4384 68.5195 105.211)" fill="#55CBAE"/>
<rect width="42.6013" height="4.96953" rx="2.48477" transform="matrix(-0.552833 -0.833292 -0.833292 0.552833 138.668 105.211)" fill="#55CBAE"/>
</svg>
