<svg width="209" height="201" viewBox="0 0 209 201" fill="none" xmlns="http://www.w3.org/2000/svg">
<path d="M204.164 56.2315C218.949 95.1707 193.389 133.937 161.707 160.976C128.094 189.664 83.7952 213.897 45.7307 191.449C4.83488 167.331 -7.46903 114.594 5.72348 68.986C17.7124 27.539 57.8257 3.54828 100.883 0.780831C143.994 -1.9901 188.83 15.8444 204.164 56.2315Z" fill="#2A2338"/>
<circle cx="60.2839" cy="123.024" r="16.5651" fill="#7B5AC4"/>
<circle cx="104.178" cy="55.1081" r="16.5651" fill="#7B5AC4"/>
<circle cx="147.249" cy="123.026" r="16.5651" fill="#7B5AC4"/>
<path fill-rule="evenodd" clip-rule="evenodd" d="M60.2852 145.873C72.9036 145.873 83.1328 135.644 83.1328 123.025C83.1328 110.407 72.9036 100.178 60.2852 100.178C47.6667 100.178 37.4375 110.407 37.4375 123.025C37.4375 135.644 47.6667 145.873 60.2852 145.873ZM60.2852 147.873C74.0081 147.873 85.1328 136.748 85.1328 123.025C85.1328 109.302 74.0081 98.1777 60.2852 98.1777C46.5622 98.1777 35.4375 109.302 35.4375 123.025C35.4375 136.748 46.5622 147.873 60.2852 147.873Z" fill="#A781F7"/>
<path fill-rule="evenodd" clip-rule="evenodd" d="M104.18 77.9551C116.798 77.9551 127.027 67.7258 127.027 55.1074C127.027 42.489 116.798 32.2598 104.18 32.2598C91.5613 32.2598 81.332 42.489 81.332 55.1074C81.332 67.7258 91.5613 77.9551 104.18 77.9551ZM104.18 79.9551C117.903 79.9551 129.027 68.8304 129.027 55.1074C129.027 41.3844 117.903 30.2598 104.18 30.2598C90.4567 30.2598 79.332 41.3844 79.332 55.1074C79.332 68.8304 90.4567 79.9551 104.18 79.9551Z" fill="#A781F7"/>
<path fill-rule="evenodd" clip-rule="evenodd" d="M147.246 145.873C159.865 145.873 170.094 135.644 170.094 123.025C170.094 110.407 159.865 100.178 147.246 100.178C134.628 100.178 124.398 110.407 124.398 123.025C124.398 135.644 134.628 145.873 147.246 145.873ZM147.246 147.873C160.969 147.873 172.094 136.748 172.094 123.025C172.094 109.302 160.969 98.1777 147.246 98.1777C133.523 98.1777 122.398 109.302 122.398 123.025C122.398 136.748 133.523 147.873 147.246 147.873Z" fill="#A781F7"/>
<rect x="79.332" y="120.537" width="48.8671" height="4.96953" rx="2.48477" fill="#55CBAE"/>
<rect x="69.1758" y="105.713" width="42.6013" height="4.96953" rx="2.48477" transform="rotate(-56.4384 69.1758 105.713)" fill="#55CBAE"/>
<rect width="42.6013" height="4.96953" rx="2.48477" transform="matrix(-0.552833 -0.833292 -0.833292 0.552833 139.324 105.713)" fill="#55CBAE"/>
</svg>
