<svg width="168" height="168" viewBox="0 0 168 168" fill="none" xmlns="http://www.w3.org/2000/svg">
<path d="M62.5978 47.8125V30C62.5978 24.4772 58.1207 20 52.5978 20H17C11.4772 20 7 24.4771 7 30V84.9728C7 90.4957 11.4772 94.9728 17 94.9728H52.5978C58.1207 94.9728 62.5978 90.4957 62.5978 84.9728V68.3696" stroke="#947CCC" stroke-width="8"/>
<path d="M106.402 100.053V82.2402C106.402 76.7174 110.879 72.2402 116.402 72.2402H152C157.523 72.2402 162 76.7174 162 82.2402V137.213C162 142.736 157.523 147.213 152 147.213H116.402C110.879 147.213 106.402 142.736 106.402 137.213V120.61" stroke="#947CCC" stroke-width="8"/>
<path d="M47.4492 57.9004H74.0933C79.6161 57.9004 84.0933 62.3775 84.0933 67.9004V100.55C84.0933 106.073 88.5704 110.55 94.0933 110.55H121.58" stroke="#6DBCA9" stroke-width="8" stroke-linecap="round"/>
</svg>
