<svg width="168" height="168" viewBox="0 0 168 168" fill="none" xmlns="http://www.w3.org/2000/svg">
<path d="M98.7828 47.0418C98.7828 50.9628 97.2252 54.7231 94.4527 57.4957C91.6802 60.2682 87.9198 61.8258 83.9988 61.8258C80.0779 61.8258 76.3175 60.2682 73.545 57.4957C70.7724 54.7231 69.2148 50.9628 69.2148 47.0418C69.2148 43.1208 70.7724 39.3605 73.545 36.5879C76.3175 33.8154 80.0779 32.2578 83.9988 32.2578C87.9198 32.2578 91.6802 33.8154 94.4527 36.5879C97.2252 39.3605 98.7828 43.1208 98.7828 47.0418Z" stroke="#6DBCA9" stroke-width="8"/>
<path d="M128.348 69.2168C128.348 69.2168 102.203 80.3048 83.9965 80.3048C65.79 80.3048 39.6445 69.2168 39.6445 69.2168M83.9965 84.0008V94.734M83.9965 94.734C83.9944 98.9877 85.2159 103.152 87.5151 106.731L106.172 135.745M83.9965 94.734C83.9986 98.9877 82.7771 103.152 80.4779 106.731L61.8205 135.745" stroke="#6DBCA9" stroke-width="8" stroke-linecap="round"/>
<path d="M47.0381 19.9707C58.2704 13.4724 71.0215 10.0602 83.9981 10.0802C124.824 10.0802 157.918 43.1741 157.918 84.0001C157.918 124.826 124.824 157.92 83.9981 157.92C43.1721 157.92 10.0781 124.826 10.0781 84.0001C10.0781 70.5393 13.678 57.9064 19.9686 47.0401" stroke="#947CCC" stroke-width="8" stroke-linecap="round"/>
</svg>
