<svg width="209" height="200" viewBox="0 0 209 200" fill="none" xmlns="http://www.w3.org/2000/svg">
<path d="M204.164 55.7296C218.949 94.6687 193.389 133.435 161.707 160.474C128.094 189.162 83.7952 213.395 45.7307 190.947C4.83488 166.829 -7.46903 114.092 5.72348 68.4841C17.7124 27.0371 57.8257 3.04633 100.883 0.278878C143.994 -2.49205 188.83 15.3424 204.164 55.7296Z" fill="#E4D7FF"/>
<circle cx="60.2839" cy="122.522" r="16.5651" fill="#7B5AC4"/>
<circle cx="104.178" cy="54.6061" r="16.5651" fill="#7B5AC4"/>
<circle cx="147.249" cy="122.524" r="16.5651" fill="#7B5AC4"/>
<path fill-rule="evenodd" clip-rule="evenodd" d="M60.2852 145.371C72.9036 145.371 83.1328 135.142 83.1328 122.523C83.1328 109.905 72.9036 99.6758 60.2852 99.6758C47.6667 99.6758 37.4375 109.905 37.4375 122.523C37.4375 135.142 47.6667 145.371 60.2852 145.371ZM60.2852 147.371C74.0081 147.371 85.1328 136.246 85.1328 122.523C85.1328 108.8 74.0081 97.6758 60.2852 97.6758C46.5622 97.6758 35.4375 108.8 35.4375 122.523C35.4375 136.246 46.5622 147.371 60.2852 147.371Z" fill="#A781F7"/>
<path fill-rule="evenodd" clip-rule="evenodd" d="M104.18 77.4531C116.798 77.4531 127.027 67.2239 127.027 54.6055C127.027 41.9871 116.798 31.7578 104.18 31.7578C91.5613 31.7578 81.332 41.9871 81.332 54.6055C81.332 67.2239 91.5613 77.4531 104.18 77.4531ZM104.18 79.4531C117.903 79.4531 129.027 68.3285 129.027 54.6055C129.027 40.8825 117.903 29.7578 104.18 29.7578C90.4567 29.7578 79.332 40.8825 79.332 54.6055C79.332 68.3285 90.4567 79.4531 104.18 79.4531Z" fill="#A781F7"/>
<path fill-rule="evenodd" clip-rule="evenodd" d="M147.246 145.371C159.865 145.371 170.094 135.142 170.094 122.523C170.094 109.905 159.865 99.6758 147.246 99.6758C134.628 99.6758 124.398 109.905 124.398 122.523C124.398 135.142 134.628 145.371 147.246 145.371ZM147.246 147.371C160.969 147.371 172.094 136.246 172.094 122.523C172.094 108.8 160.969 97.6758 147.246 97.6758C133.523 97.6758 122.398 108.8 122.398 122.523C122.398 136.246 133.523 147.371 147.246 147.371Z" fill="#A781F7"/>
<rect x="79.332" y="120.035" width="48.8671" height="4.96953" rx="2.48477" fill="#55CBAE"/>
<rect x="69.1758" y="105.211" width="42.6013" height="4.96953" rx="2.48477" transform="rotate(-56.4384 69.1758 105.211)" fill="#55CBAE"/>
<rect width="42.6013" height="4.96953" rx="2.48477" transform="matrix(-0.552833 -0.833292 -0.833292 0.552833 139.324 105.211)" fill="#55CBAE"/>
</svg>
