<svg width="196" height="198" viewBox="0 0 196 198" fill="none" xmlns="http://www.w3.org/2000/svg">
<path d="M173.065 15.9719C203.974 42.6254 199.48 88.5107 183.915 126.262C168.193 164.394 139.21 199.569 98.0374 197.946C52.1156 196.135 10.61 164.137 1.3733 119.065C-7.15418 77.4545 25.3746 42.777 61.7607 20.9286C96.9719 -0.214272 141.955 -10.8543 173.065 15.9719Z" fill="#E4D7FF"/>
<path d="M102.5 91.5C88.0781 91.5 76.5 79.8105 76.5 65.25C76.5 50.8945 88.0781 39 102.5 39C116.719 39 128.5 50.8945 128.5 65.25C128.5 79.8105 116.719 91.5 102.5 91.5ZM112.656 101.344C132.156 101.344 148 117.34 148 137.027C148 140.924 144.75 144 140.891 144H63.9062C60.0469 144 57 140.924 57 137.027C57 117.34 72.6406 101.344 92.1406 101.344H112.656Z" fill="#7B5AC4"/>
<path d="M47.7771 102.756C46.741 103.791 46.741 105.344 47.7771 106.275C48.1916 106.793 48.8133 107 49.435 107C50.1603 107 50.782 106.793 51.3001 106.275L65.1848 92.4043C68.915 95.4062 73.5777 97.0625 78.5513 97.0625C90.3636 97.0625 100 87.4355 100 75.5312C100 63.7305 90.4673 54 78.5513 54C66.739 54 56.999 63.7305 56.999 75.5312C56.999 80.6035 58.6569 85.2617 61.6618 88.8848L47.7771 102.756ZM95.0264 75.5312C95.0264 84.7441 87.6696 92.0938 78.4477 92.0938C69.3294 92.0938 61.869 84.7441 61.869 75.5312C61.869 66.4219 69.3294 58.9688 78.4477 58.9688C87.6696 58.9688 95.0264 66.4219 95.0264 75.5312Z" fill="#55CBAE"/>
</svg>
