<svg width="168" height="168" viewBox="0 0 168 168" fill="none" xmlns="http://www.w3.org/2000/svg">
<path d="M17 155.578V138.736C17 129.802 20.5488 121.235 26.8658 114.918C33.1828 108.601 41.7504 105.052 50.684 105.052H63.3155M33.842 37.684C33.842 46.6175 37.3908 55.1852 43.7078 61.5022C50.0248 67.8191 58.5924 71.368 67.526 71.368C76.4595 71.368 85.0272 67.8191 91.3442 61.5022C97.6612 55.1852 101.21 46.6175 101.21 37.684C101.21 28.7504 97.6612 20.1828 91.3442 13.8658C85.0272 7.54884 76.4595 4 67.526 4C58.5924 4 50.0248 7.54884 43.7078 13.8658C37.3908 20.1828 33.842 28.7504 33.842 37.684Z" stroke="#6F51B5" stroke-width="8" stroke-linecap="round" stroke-linejoin="round"/>
<path d="M136.578 148.842L151.736 164M92.7891 130.316C92.7891 137.016 95.4507 143.442 100.188 148.179C104.926 152.917 111.352 155.579 118.052 155.579C124.752 155.579 131.178 152.917 135.916 148.179C140.653 143.442 143.315 137.016 143.315 130.316C143.315 123.616 140.653 117.19 135.916 112.452C131.178 107.714 124.752 105.053 118.052 105.053C111.352 105.053 104.926 107.714 100.188 112.452C95.4507 117.19 92.7891 123.616 92.7891 130.316Z" stroke="#4FB099" stroke-width="8" stroke-linecap="round" stroke-linejoin="round"/>
</svg>
