<svg width="168" height="168" viewBox="0 0 168 168" fill="none" xmlns="http://www.w3.org/2000/svg">
<path d="M98.7853 47.0413C98.7853 50.9622 97.2277 54.7226 94.4551 57.4951C91.6826 60.2676 87.9222 61.8252 84.0013 61.8252C80.0803 61.8252 76.32 60.2676 73.5474 57.4951C70.7749 54.7226 69.2173 50.9622 69.2173 47.0413C69.2173 43.1203 70.7749 39.3599 73.5474 36.5874C76.32 33.8149 80.0803 32.2573 84.0013 32.2573C87.9222 32.2573 91.6826 33.8149 94.4551 36.5874C97.2277 39.3599 98.7853 43.1203 98.7853 47.0413Z" stroke="#3A8D79" stroke-width="8"/>
<path d="M128.349 69.2173C128.349 69.2173 102.204 80.3053 83.9975 80.3053C65.791 80.3053 39.6455 69.2173 39.6455 69.2173M83.9975 84.0013V94.7344M83.9975 94.7344C83.9954 98.9882 85.2168 103.153 87.5161 106.732L106.173 135.745M83.9975 94.7344C83.9995 98.9882 82.7781 103.153 80.4789 106.732L61.8215 135.745" stroke="#3A8D79" stroke-width="8" stroke-linecap="round"/>
<path d="M47.04 19.9706C58.2723 13.4723 71.0234 10.0601 84 10.0801C124.826 10.0801 157.92 43.1741 157.92 84.0001C157.92 124.826 124.826 157.92 84 157.92C43.174 157.92 10.08 124.826 10.08 84.0001C10.08 70.5392 13.6799 57.9063 19.9705 47.0401" stroke="#7159A9" stroke-width="8" stroke-linecap="round"/>
</svg>
