<svg width="168" height="168" viewBox="0 0 168 168" fill="none" xmlns="http://www.w3.org/2000/svg">
<path d="M62.5978 47.8125V30C62.5978 24.4772 58.1207 20 52.5978 20H17C11.4772 20 7 24.4771 7 30V84.9728C7 90.4957 11.4772 94.9728 17 94.9728H52.5978C58.1207 94.9728 62.5978 90.4957 62.5978 84.9728V68.3696" stroke="#7159A9" stroke-width="8"/>
<path d="M106.402 100.052V82.2394C106.402 76.7165 110.879 72.2394 116.402 72.2394H152C157.523 72.2394 162 76.7165 162 82.2394V137.212C162 142.735 157.523 147.212 152 147.212H116.402C110.879 147.212 106.402 142.735 106.402 137.212V120.609" stroke="#7159A9" stroke-width="8"/>
<path d="M47.4485 57.9008H74.0925C79.6154 57.9008 84.0925 62.3779 84.0925 67.9008V100.55C84.0925 106.073 88.5697 110.55 94.0925 110.55H121.579" stroke="#3A8D79" stroke-width="8" stroke-linecap="round"/>
</svg>
